# xmcd CD database file
#
# Track frame offsets:
#	150
#	21396
#	43107
#	65589
#	84857
#	101785
#	126057
#	145313
#	169358
#	224429
#	253971
#	283663
#	309616
#
# Disc length: 4660 seconds
#
# Revision: 0
# Processed by: cddbd v1.5.2PL0 Copyright (c) Steve Scherf et al.
# Submitted via: CDex 1.51
#
DISCID=cb12320d
DTITLE=David Fathead Newman - David Fathead Newman CD1
DYEAR=2018
DGENRE=Jazz
TTITLE0=David Fathead Newman - Track 1 Hard Times
TTITLE1=David Fathead Newman - Track 2 Weird Beard
TTITLE2=David Fathead Newman - Track 3 Willow Weep For Me
TTITLE3=David Fathead Newman - Track 4 Bill For Bennie
TTITLE4=David Fathead Newman - Track 5 Sweet Eyes
TTITLE5=David Fathead Newman - Track 6 Fathead
TTITLE6=David Fathead Newman - Track 7 Mean To Me
TTITLE7=David Fathead Newman - Track 8 Tin Tin Deo
TTITLE8=David Fathead Newman - Track 9 Wide Open Spaces
TTITLE9=David Fathead Newman - Track 10 They Can't Take That Away From Me
TTITLE10=David Fathead Newman - Track 11 Some Kinda Mean
TTITLE11=David Fathead Newman - Track 12 What's New
TTITLE12=David Fathead Newman - Track 13 Figger-Ration
EXTD=YEAR: 2018
EXTT0=
EXTT1=
EXTT2=
EXTT3=
EXTT4=
EXTT5=
EXTT6=
EXTT7=
EXTT8=
EXTT9=
EXTT10=
EXTT11=
EXTT12=
PLAYORDER=
